<?xml version="1.0" encoding="UTF-8" standalone="no"?>
<svg
   xmlns:dc="http://purl.org/dc/elements/1.1/"
   xmlns:cc="http://creativecommons.org/ns#"
   xmlns:rdf="http://www.w3.org/1999/02/22-rdf-syntax-ns#"
   xmlns:svg="http://www.w3.org/2000/svg"
   xmlns="http://www.w3.org/2000/svg"
   xmlns:sodipodi="http://sodipodi.sourceforge.net/DTD/sodipodi-0.dtd"
   xmlns:inkscape="http://www.inkscape.org/namespaces/inkscape"
   version="1.1"
   id="svg865"
   sodipodi:docname="ribbon1.svg"
   inkscape:version="0.92.2 (5c3e80d, 2017-08-06)">
  <metadata
     id="metadata871">
    <rdf:RDF>
      <cc:Work
         rdf:about="">
        <dc:format>image/svg+xml</dc:format>
        <dc:type
           rdf:resource="http://purl.org/dc/dcmitype/StillImage" />
      </cc:Work>
    </rdf:RDF>
  </metadata>
  <defs
     id="defs869" />
  <sodipodi:namedview
     pagecolor="#ffffff"
     bordercolor="#666666"
     borderopacity="1"
     objecttolerance="10"
     gridtolerance="10"
     guidetolerance="10"
     inkscape:pageopacity="0"
     inkscape:pageshadow="2"
     inkscape:window-width="1366"
     inkscape:window-height="677"
     id="namedview867"
     showgrid="false"
     showguides="false"
     inkscape:zoom="4.84"
     inkscape:cx="50"
     inkscape:cy="50"
     inkscape:window-x="0"
     inkscape:window-y="27"
     inkscape:window-maximized="1"
     inkscape:current-layer="svg865" />
  <path
     fill="#C00"
     d="M0 0h50v100L25 80 0 100"
     id="path863" />
  <path
     style="opacity:0.45800003;fill:none;fill-opacity:1;stroke:#244860;stroke-width:0.0088843;stroke-miterlimit:4;stroke-dasharray:none;stroke-opacity:1"
     d="M 0.04132231,49.983975 V 0.16528926 H 24.938017 49.834711 V 49.960473 99.755657 L 37.423599,89.823174 C 28.898849,83.000905 24.93613,79.949988 24.76864,80.080058 24.634525,80.184211 19.132231,84.573804 12.541322,89.834711 5.9504132,95.095618 0.44163223,99.490595 0.29958678,99.601329 0.0931326,99.762273 0.04132231,89.808562 0.04132231,49.983975 Z"
     id="path873"
     inkscape:connector-curvature="0" />
  <path
     style="opacity:0.45800003;fill:#148080;fill-opacity:1;stroke:#244860;stroke-width:0.0088843;stroke-miterlimit:4;stroke-dasharray:none;stroke-opacity:1"
     d="M 0.04132231,49.983975 V 0.16528926 H 24.938017 49.834711 V 49.960473 99.755657 L 37.423599,89.823174 C 28.898849,83.000905 24.93613,79.949988 24.76864,80.080058 24.634525,80.184211 19.132231,84.573804 12.541322,89.834711 5.9504132,95.095618 0.44163223,99.490595 0.29958678,99.601329 0.0931326,99.762273 0.04132231,89.808562 0.04132231,49.983975 Z"
     id="path875"
     inkscape:connector-curvature="0" />
  <path
     style="opacity:0.45800003;fill:#148080;fill-opacity:1;stroke:#1c4860;stroke-width:0.0088843;stroke-miterlimit:4;stroke-dasharray:none;stroke-opacity:1"
     d="M 0.17844089,85.725744 C 0.10321244,78.15613 0.04158548,55.808368 0.04149211,36.06405 L 0.04132231,0.16528926 H 24.938017 49.834711 V 49.867566 c 0,39.708479 -0.05193,49.670457 -0.258265,49.544027 -0.142045,-0.08704 -4.398117,-3.462876 -9.45794,-7.501864 C 28.365816,82.52818 25.061229,79.917355 24.939459,79.917355 c -0.05393,0 -3.330453,2.584717 -7.281156,5.743814 -3.950703,3.1591 -9.4690935,7.562647 -12.2630898,9.785664 L 0.31521988,99.48868 Z"
     id="path877"
     inkscape:connector-curvature="0" />
  <path
     style="opacity:0.45800003;fill:#148080;fill-opacity:1;stroke:#1c4860;stroke-width:0.0088843;stroke-miterlimit:4;stroke-dasharray:none;stroke-opacity:1"
     d="M 0.37707771,98.548618 C 0.30748822,98.130969 0.18805304,75.823864 0.11166618,48.977273 L -0.02721903,0.16528926 H 24.903746 49.834711 L 49.807839,44.328512 c -0.01477,24.289773 -0.08451,46.598463 -0.154959,49.574866 l -0.128087,5.411641 -7.541322,-6.00256 C 30.652211,84.293275 26.031583,80.64999 25.412097,80.246223 l -0.558975,-0.364328 -7.085652,5.639107 c -3.897109,3.10151 -9.37575,7.47238 -12.1747588,9.713043 l -5.08910713,4.073934 z"
     id="path879"
     inkscape:connector-curvature="0" />
  <path
     style="opacity:0.45800003;fill:#148080;fill-opacity:1;stroke:#1c4860;stroke-width:0;stroke-miterlimit:4;stroke-dasharray:0,0;stroke-opacity:1;stroke-dashoffset:0"
     d="m 49.936342,49.958678 c 0,-27.443182 0.02399,-38.669938 0.05332,-24.948347 0.02933,13.72159 0.02933,36.175103 0,49.896694 -0.02933,13.721591 -0.05332,2.494835 -0.05332,-24.948347 z"
     id="path881"
     inkscape:connector-curvature="0" />
  <path
     style="opacity:0.45800003;fill:#148080;fill-opacity:1;stroke:#1c4860;stroke-width:0;stroke-miterlimit:4;stroke-dasharray:none;stroke-dashoffset:0;stroke-opacity:1"
     d="M 0.43873733,97.134986 C 0.43004287,96.017562 0.39382849,94.954541 0.35826093,94.772721 0.32269335,94.590899 0.22416021,73.229845 0.13929839,47.303713 L -0.01499583,0.16528926 H 24.909857 49.834711 L 49.834579,31.828512 C 49.834438,65.650994 49.63768,99.134341 49.439101,99.128946 49.372595,99.12714 44.576446,95.352122 38.780992,90.740014 26.95844,81.331455 25.068959,79.873054 24.814579,79.96001 24.716989,79.99337 19.272906,84.297521 12.716608,89.524793 6.1603107,94.752066 0.71922477,99.059917 0.6253063,99.097795 0.5313878,99.135675 0.4474318,98.252411 0.43873733,97.134986 Z"
     id="path2349"
     inkscape:connector-curvature="0" />
  <path
     style="opacity:0.45800003;fill:#328080;fill-opacity:1;stroke:#1c4860;stroke-width:0;stroke-miterlimit:4;stroke-dasharray:none;stroke-dashoffset:0;stroke-opacity:1"
     d="M 0.37875634,93.601025 C 0.30834895,90.563643 0.19134826,68.298037 0.11875481,44.121901 L -0.01323326,0.16528926 H 24.944787 49.902806 L 49.763824,48.460744 c -0.07644,26.5625 -0.197322,48.825973 -0.268628,49.474386 l -0.129644,1.178932 -0.850131,-0.682808 c -3.304863,-2.65439 -20.210745,-16.018227 -21.686,-17.142442 -1.005181,-0.765998 -1.909725,-1.364694 -2.010097,-1.330438 -0.100372,0.03426 -5.49506,4.292659 -11.988198,9.463114 C 6.3379882,94.591942 0.90872446,98.890089 0.76609539,98.972926 0.56206521,99.091424 0.4794738,97.945986 0.37875634,93.601025 Z"
     id="path2351"
     inkscape:connector-curvature="0" />
  <path
     style="opacity:0.45800003;fill:#448080;fill-opacity:1;stroke:#1c4860;stroke-width:0;stroke-miterlimit:4;stroke-dasharray:none;stroke-dashoffset:0;stroke-opacity:1"
     d="M 0.38117849,93.915289 C 0.30930525,91.045971 0.18987424,68.778409 0.11577622,44.431818 L -0.01894746,0.16528926 H 24.94175 49.902448 L 49.754089,48.770661 c -0.0816,26.732955 -0.213058,48.989754 -0.292134,49.459554 l -0.143773,0.85418 -2.902482,-2.300461 c -1.596363,-1.265254 -6.693979,-5.30592 -11.328033,-8.979256 -4.634053,-3.673337 -8.82926,-6.963354 -9.322679,-7.311149 l -0.897131,-0.632355 -3.37401,2.677706 c -1.855707,1.472738 -7.308816,5.808727 -12.1180206,9.635529 -4.8092043,3.826802 -8.77099933,6.957822 -8.80398867,6.957822 -0.0329893,0 -0.11878599,-2.347624 -0.19065924,-5.216942 z"
     id="path2353"
     inkscape:connector-curvature="0" />
  <path
     style="opacity:0.45800003;fill:#0083b3;fill-opacity:1;stroke:#1c4860;stroke-width:0;stroke-miterlimit:4;stroke-dasharray:none;stroke-dashoffset:0;stroke-opacity:1"
     d="M 0.38484473,95.561273 C 0.31274773,93.604845 0.1914099,71.340393 0.1152051,46.084711 L -0.02334907,0.16528926 H 24.939194 49.901738 L 49.758523,48.873967 c -0.07877,26.789773 -0.210068,49.05038 -0.291777,49.468019 l -0.148564,0.759338 -8.987603,-7.132212 C 31.229969,84.747223 26.710787,81.197479 25.526347,80.34063 L 24.875008,79.869438 12.958086,89.345876 C 6.4037787,94.557917 0.92298614,98.888936 0.77854692,98.970364 0.57264771,99.086438 0.48761957,98.350174 0.38484473,95.561273 Z"
     id="path2355"
     inkscape:connector-curvature="0" />
  <path
     style="opacity:0.45800003;fill:#0083b3;fill-opacity:1;stroke:#1c4860;stroke-width:0;stroke-miterlimit:4;stroke-dasharray:none;stroke-dashoffset:0;stroke-opacity:1"
     d="M 0.58922056,98.56705 C 0.37133816,97.785893 0.24478634,82.711012 0.11654971,42.262397 L -0.01691322,0.16528926 H 24.940727 49.898368 L 49.760541,46.084711 C 49.626236,90.831822 49.538267,99.00175 49.192062,98.880967 49.099595,98.848709 44.016994,94.857862 37.897393,90.012417 31.777789,85.166975 26.341806,80.900107 25.817426,80.530492 L 24.86401,79.858461 23.454752,80.97262 c -0.775091,0.612785 -4.802861,3.814095 -8.950599,7.114018 -8.7855063,6.989711 -13.2280816,10.492157 -13.56985622,10.69823 -0.14246457,0.0859 -0.28555509,-0.0044 -0.34507622,-0.217818 z"
     id="path2357"
     inkscape:connector-curvature="0" />
  <path
     style="opacity:0.45800003;fill:#0083b3;fill-opacity:1;stroke:#1c4860;stroke-width:0;stroke-miterlimit:4;stroke-dasharray:none;stroke-dashoffset:0;stroke-opacity:1"
     d="M 0.57860653,98.051519 C 0.37593424,96.412405 0.25063527,80.802337 0.11587231,40.402893 L -0.01835079,0.16528926 H 24.938405 49.895159 L 49.734089,45.154959 C 49.579271,88.398566 49.474062,98.663967 49.184566,98.77231 49.111076,98.799812 44.030711,94.852775 37.894862,90.001116 31.75901,85.149455 26.31695,80.882589 25.80139,80.519188 l -0.93738,-0.660727 -1.409279,1.114006 C 22.67963,81.585169 19.116736,84.414399 15.53719,87.259643 6.5508155,94.402566 1.2229816,98.606742 0.93268085,98.784008 0.7637649,98.887155 0.65380304,98.659671 0.57860653,98.051519 Z"
     id="path2359"
     inkscape:connector-curvature="0" />
</svg>
